<svg width="87" height="24" viewBox="0 0 87 24" fill="none" xmlns="http://www.w3.org/2000/svg">
<circle cx="11.4998" cy="11.9998" r="11.4998" fill="#E42E2C"/>
<circle style="mix-blend-mode:multiply" cx="11.4998" cy="11.9998" r="11.4998" fill="url(#paint0_linear_1992_54936)" fill-opacity="0.1"/>
<path d="M17.0259 22.0706C18.4037 21.3155 19.6172 20.2889 20.5926 19.0533L33.034 3.29929C31.7168 2.25905 30.2123 1.48269 28.6061 1.01453C27 0.546374 25.3238 0.395588 23.6732 0.570789C22.0226 0.74599 20.3973 1.16563 18.9861 2.03563C18.3612 2.42088 18.0968 2.76031 17.651 3.33244L17.624 3.36714L3.95276 20.6785C5.12107 21.7047 6.48825 22.4792 7.97108 22.9549C9.45391 23.4306 11.0214 23.5975 12.578 23.4455C14.1347 23.2935 15.648 22.8257 17.0259 22.0706Z" fill="#E42E2C"/>
<path fill-rule="evenodd" clip-rule="evenodd" d="M38.9361 8.00818L38.9244 8.01984L38.9167 8.03537C38.2601 9.13089 37.8639 10.2109 37.7279 11.2831V11.2947V22.483C37.7279 22.483 37.7279 22.5218 37.7279 22.5451C37.7279 22.5956 37.7279 22.6733 37.7279 22.6733H39.6159V16.4149C40.1831 17.0248 40.8008 17.4949 41.4806 17.829C42.2964 18.2213 43.1899 18.4195 44.1573 18.4195C45.8743 18.4195 47.3467 17.7901 48.5626 16.5431C49.7825 15.2961 50.3924 13.7771 50.3924 11.9979C50.3924 10.2497 49.7786 8.74629 48.551 7.50704C47.3234 6.26778 45.8433 5.64233 44.1106 5.64233C43.1239 5.64233 42.1954 5.83269 41.3252 6.21728C40.4589 6.598 39.6625 7.19626 38.9361 8.00818ZM46.2317 8.08588C46.9194 8.48601 47.4671 9.04154 47.875 9.76023C48.2829 10.4789 48.4849 11.2403 48.4849 12.0523C48.4849 12.8487 48.279 13.6178 47.8634 14.356C47.4555 15.0863 46.9077 15.6535 46.2123 16.0575C45.5247 16.4576 44.7905 16.6558 44.0058 16.6558C43.2094 16.6558 42.4518 16.4576 41.7331 16.0575C41.0183 15.6496 40.4706 15.1057 40.086 14.422C39.7014 13.7266 39.5071 12.9535 39.5071 12.095C39.5071 10.7703 39.9422 9.67865 40.8086 8.7968C41.6749 7.91495 42.7315 7.47596 43.9863 7.47596C44.806 7.47596 45.5519 7.68186 46.2317 8.08588Z" fill="#E42E2C"/>
<path d="M52.4863 11.3219L52.4824 11.3375V18.3418H54.4132V14.1617C54.4132 12.3281 54.5064 11.1044 54.6851 10.4634C54.926 9.74469 55.3572 9.07651 55.9904 8.45883C56.6159 7.8528 57.2064 7.6974 57.7813 7.91107L57.9289 7.96545L58.9001 6.39599L58.7292 6.29887C58.2358 6.01528 57.758 5.86377 57.2996 5.86377C56.6819 5.86377 55.9399 6.17844 55.0852 6.75728C54.1995 7.35554 53.508 8.29177 52.9952 9.54657C52.7699 10.0089 52.6028 10.6032 52.4863 11.3219Z" fill="#E42E2C"/>
<path d="M59.4323 3.79327C59.712 4.07297 60.0578 4.21671 60.4502 4.21671C60.8464 4.21671 61.1883 4.07297 61.468 3.79327C61.7555 3.50579 61.8992 3.16004 61.8992 2.76379C61.8992 2.36754 61.7516 2.02568 61.4641 1.74597C61.1844 1.46626 60.8425 1.32642 60.4463 1.32642C60.05 1.32642 59.7082 1.47015 59.4285 1.74986C59.1487 2.02957 59.005 2.37143 59.005 2.76768C59.0128 3.16393 59.1565 3.50968 59.4323 3.79327Z" fill="#E42E2C"/>
<path d="M61.4058 6.18237H59.5061V18.3651H61.4058V6.18237Z" fill="#E42E2C"/>
<path d="M64.976 6.2019H62.9403L68.55 18.3847H69.0628L74.6375 6.2019H72.5941L68.8025 14.5193L64.976 6.2019Z" fill="#E42E2C"/>
<path d="M84.7302 6.2019L81.0474 14.7058L77.2558 6.2019H75.2318L80.0257 17.0017L77.6715 22.386H79.6916L86.7736 6.2019H84.7302Z" fill="#E42E2C"/>
<defs>
<linearGradient id="paint0_linear_1992_54936" x1="11.4998" y1="11.9998" x2="6.82321" y2="8.08987" gradientUnits="userSpaceOnUse">
<stop offset="0.157792"/>
<stop offset="0.366183" stop-opacity="0.75"/>
<stop offset="0.572837" stop-opacity="0.5"/>
<stop offset="0.801512" stop-opacity="0.25"/>
<stop offset="1" stop-opacity="0"/>
</linearGradient>
</defs>
</svg>
